<?xml version="1.0" encoding="utf-8"?>
<!-- Generator: Adobe Illustrator 22.1.0, SVG Export Plug-In . SVG Version: 6.00 Build 0)  -->
<svg version="1.1" id="Layer_1" xmlns="http://www.w3.org/2000/svg" xmlns:xlink="http://www.w3.org/1999/xlink" x="0px" y="0px"
	 viewBox="0 0 25.8 14" style="enable-background:new 0 0 25.8 14;" xml:space="preserve">
<style type="text/css">
	.st0{fill:#F3F3F3;}
	.st1{fill:#F15628;}
	.st2{fill:#81BD41;}
	.st3{fill:#35A2DB;}
	.st4{fill:#FDB913;}
</style>
<g>
	<g>
		<path d="M20.6,10.3c0,0,1.6,0.3,2.3,0.3c0.8,0,1.4-0.4,1.6-1.2c0.2-0.8-0.3-1.3-0.9-1.7c-0.5-0.2-1-0.4-1.4-0.6
			c-1.3-0.6-1.9-1.7-1.6-2.9c0.3-1.1,1.3-1.8,2.6-1.8c0.7,0,1.4,0.2,2.2,0.2c-0.2,0.5-0.2,0.8-0.3,1c-0.7-0.1-1.4-0.2-2-0.2
			c-0.6,0-1.1,0.3-1.3,0.9c-0.2,0.7,0.1,1.2,0.7,1.5c0.6,0.3,1.2,0.5,1.7,0.8c1.2,0.6,1.8,1.6,1.5,2.8c-0.2,1.2-1.2,2-2.6,2
			c-0.7,0-2.3-0.2-2.3-0.2L20.6,10.3z"/>
		<path d="M18.1,2.6c0.4,0,0.7,0,1.1,0c0,2.9,0,5.8,0,8.8c-0.4,0-0.7,0-1.1,0C18.1,8.5,18.1,5.6,18.1,2.6z"/>
		<path d="M16.8,11.4c-0.4,0-0.7,0-1.1,0c0-2.9,0-5.8,0-8.8c0.3,0,0.7,0,1.1,0C16.8,5.6,16.8,8.5,16.8,11.4z"/>
	</g>
	<rect class="st0" width="14" height="14"/>
	<rect x="0.5" y="0.5" class="st1" width="6.2" height="6.2"/>
	<rect x="7.3" y="0.5" class="st2" width="6.2" height="6.2"/>
	<rect x="0.5" y="7.3" class="st3" width="6.2" height="6.2"/>
	<rect x="7.3" y="7.3" class="st4" width="6.2" height="6.2"/>
</g>
</svg>
